<svg width="180" height="180" viewBox="0 0 180 180" fill="none" xmlns="http://www.w3.org/2000/svg">
<g clip-path="url(#clip0_115_94)">
<path d="M145.066 7.62722L143.129 15.215L144.315 18.3765C147.002 25.3714 146.884 24.7787 152.337 61.4527C154.037 72.9528 157.949 98.9566 160.992 119.23C167.394 161.437 167.75 164.322 167.868 174.162C167.908 178.154 167.987 181.394 168.027 181.394C168.777 181.394 171.504 170.842 172.295 164.915C173.796 153.493 172.927 145.55 164.588 93.8586C160.992 71.4511 155.696 32.9592 156.131 32.4454C156.21 32.3664 157.989 33.9472 160.123 36.0022L163.996 39.6775L164.233 38.5314C164.984 35.0932 164.984 35.0142 158.581 23.5931C155.104 17.349 149.413 5.49317 147.951 1.46219C147.674 0.671804 147.358 -2.65986e-05 147.2 -2.65986e-05C147.081 -2.65986e-05 146.133 3.43816 145.066 7.62722Z" fill="white"/>
<path d="M73.6146 3.04296C72.7057 4.07047 72.3895 5.41413 72.6662 6.91586C72.8638 7.94337 73.4961 8.6152 75.6696 10.2355C77.1714 11.342 79.4635 13.4761 80.7676 14.9383C84.9567 19.5226 86.9327 24.3044 88.1973 32.6825C88.9877 37.9781 89.1458 37.741 89.9361 30.3114C90.5289 24.9367 89.9361 19.8782 88.3949 16.4005C87.0512 13.397 83.5735 8.69424 80.0563 5.13749C77.6061 2.64777 77.2109 2.37113 75.7882 2.37113C74.8002 2.37113 74.0098 2.60825 73.6146 3.04296Z" fill="white"/>
<path d="M123.33 29.1258C122.224 30.6275 117.6 33.4334 113.727 34.9746C111.83 35.7255 106.89 37.5039 102.74 38.9661C98.6304 40.3888 86.5375 44.815 75.8672 48.8064C65.2365 52.7584 55.8309 56.2756 54.9615 56.5522C54.1316 56.8684 52.946 57.6588 52.3532 58.3701C51.3652 59.4767 48.4012 64.1795 48.4012 64.6142C48.4012 64.6932 49.7054 63.9819 51.2466 62.9939C54.6453 60.8994 57.2536 59.9114 77.2504 52.7979C98.9466 45.0521 116.256 38.7685 118.588 37.741C120.88 36.7135 121.749 35.5674 123.291 31.4179C124.437 28.4144 124.437 27.6635 123.33 29.1258Z" fill="white"/>
<path d="M34.1742 38.4128C33.1467 38.808 30.5384 44.3012 31.0917 44.894C31.2102 44.973 32.1192 44.4198 33.1072 43.6689L34.9646 42.2462L39.1536 42.3648L43.3427 42.4833L39.4303 45.3682C37.2962 46.949 34.3323 48.8459 32.791 49.5968L30.0247 50.98H32.0006C36.4663 50.98 42.4338 48.4508 45.9905 45.0521C47.9665 43.1552 48.006 43.0761 48.006 40.7445V38.3733L41.4458 38.2547C37.8495 38.1757 34.5694 38.2547 34.1742 38.4128Z" fill="white"/>
<path d="M137.636 46.1191C136.451 47.4628 135.66 49.5178 134.356 54.4973C133.645 57.2241 132.973 59.2001 132.854 58.8839C132.736 58.5678 132.143 56.7894 131.55 54.9715C129.495 48.5693 124.911 45.9611 122.737 49.8735C121.473 52.1261 123.646 54.6553 126.808 54.6158L128.586 54.5763L129.732 57.6193C130.365 59.2791 131.194 61.6108 131.59 62.7173C132.182 64.6142 132.775 65.5232 133.17 65.128C133.249 65.0489 133.605 63.5867 133.961 61.8479C134.751 58.0145 136.371 52.877 137.359 50.8615C138.308 49.0041 139.177 49.0041 140.837 50.822C142.062 52.1656 142.181 52.2051 142.892 51.5333C144.157 50.4268 143.88 48.4508 142.26 46.8305C140.64 45.2497 138.664 44.9336 137.636 46.1191Z" fill="white"/>
<path d="M89.1457 55.2481L87.4464 58.7258L88.6715 62.9939C89.3433 65.3651 89.8966 68.0129 89.8966 68.8428C89.8966 71.1349 88.8691 72.9923 86.9721 74.0989C83.6525 76.0353 81.5975 75.7587 80.57 73.3085C79.8191 71.5301 79.8586 65.0489 80.6095 59.7138C80.9257 57.4612 81.1233 55.4852 81.0047 55.4062C80.649 55.011 77.7641 58.5282 76.539 60.7808C75.1953 63.3101 72.7847 69.1985 73.0218 69.3961C73.1008 69.4751 74.0098 68.3686 75.0373 66.9459C76.1043 65.5232 77.0132 64.4561 77.1318 64.5352C77.2108 64.6537 77.0923 65.9184 76.8156 67.3806C76.1438 71.1744 76.4995 75.4425 77.6851 77.6952C79.0287 80.2639 80.649 81.0938 84.0477 80.9357C87.5649 80.7381 89.5409 79.3945 91.2402 76.0749L92.4258 73.7037L93.4533 75.6797C94.7179 78.2089 96.6939 79.5921 98.5908 79.2759C101.002 78.8807 103.254 76.5886 104.124 73.5456C104.835 71.214 105.033 65.9974 104.558 62.8754C104.084 59.8719 101.871 52.5608 101.397 52.5608C101.278 52.5608 100.685 54.2601 100.093 56.3151L98.986 60.0695L99.7369 61.9269C100.804 64.6933 101.476 68.25 101.199 69.7913C100.843 71.6882 99.1836 73.5061 97.84 73.5061C95.5478 73.5061 94.2042 70.3841 93.0976 62.7173C92.4258 58.133 91.1612 51.7704 90.9241 51.7704C90.8845 51.7704 90.0942 53.3512 89.1457 55.2481Z" fill="white"/>
<path d="M36.664 74.3755C35.5969 74.8893 35.2018 75.7982 35.7945 76.5096C36.1107 76.8652 35.9921 77.9323 35.3598 80.4615L34.4904 83.9392L35.5179 84.8482C36.1107 85.3619 36.8616 85.7571 37.1777 85.7571C40.4974 85.7571 29.59 92.594 20.0658 96.4273C18.2479 97.1782 16.8647 97.85 16.9438 97.9291C17.2599 98.2057 25.5195 95.9926 28.523 94.8466C32.5935 93.2658 36.1502 91.2108 38.6004 88.9582C40.6554 87.0612 40.8135 86.9822 42.9871 87.0612C44.8445 87.1008 45.3978 86.9427 46.2277 86.1523C46.7809 85.6385 47.4133 84.5715 47.6109 83.7811C48.4012 80.8962 46.7809 78.367 42.3152 75.4425C39.9046 73.8618 38.3633 73.5456 36.664 74.3755ZM40.1022 81.489C40.1022 81.8842 39.8255 82.2004 39.4698 82.2004C38.9561 82.2004 37.4544 81.568 36.9801 81.1729C36.8616 81.0543 37.3358 80.4615 37.9681 79.7897L39.1142 78.6041L39.5884 79.7106C39.865 80.3034 40.0626 81.1333 40.1022 81.489ZM44.8445 82.8327C44.8445 83.4255 43.0661 83.6231 42.75 83.0698C42.6314 82.9117 42.6709 82.2004 42.7895 81.4495L42.9871 80.0663L43.896 81.1729C44.4098 81.7656 44.8445 82.5165 44.8445 82.8327Z" fill="white"/>
<path d="M125.741 75.324C125.622 75.7192 124.516 79.434 123.251 83.544C121.354 89.9462 121.077 91.2108 121.433 92.2383C121.67 92.9101 123.014 96.8225 124.437 100.893C125.899 105.003 127.954 111.682 129.06 115.713C130.167 119.744 132.064 125.909 133.249 129.387C135.304 135.354 140.363 148.474 141.272 150.213C141.628 150.885 141.39 151.28 139.691 152.94C129.456 162.899 118.469 161.99 111 150.529C106.534 143.653 104.242 135.631 100.725 114.251C98.2352 98.9566 96.3382 91.4874 93.4533 85.0853C90.9241 79.5526 91.2007 79.3154 89.0667 89.0767L87.2093 97.7315L88.5134 102.909C91.1612 113.223 92.9396 123.103 93.4138 130.295C94.4808 146.894 90.2127 157.524 80.57 162.267C77.606 163.729 77.3294 163.808 73.5355 163.808C69.8602 163.808 69.3465 163.689 66.8568 162.543C62.1144 160.291 58.3206 155.232 56.7398 148.909C54.8033 141.4 55.5542 122.313 58.6762 99.3518C59.6247 92.2778 59.6642 92.752 58.5972 93.0682C55.159 94.0957 48.8359 99.9446 45.9905 104.726C42.0386 111.445 40.5763 116.108 36.901 134.564C32.3563 157.09 30.5779 163.097 27.7721 164.796C24.0572 167.049 18.9592 164.124 16.0348 157.959C13.0313 151.636 12.0433 144.443 11.6876 126.265L11.4505 112.433L9.98831 116.78C7.57763 124.091 7.10339 127.687 7.10339 138.516C7.14291 149.028 7.69618 153.572 10.0674 161.674C11.5691 166.732 15.0073 173.846 17.1808 176.375C22.9902 183.014 29.7875 181.315 34.1347 172.147C36.7825 166.535 38.2052 160.725 41.1296 143.693C43.8169 127.885 45.3187 121.957 47.8874 116.78C48.994 114.567 51.4837 111.05 51.9184 111.05C52.0765 111.05 51.9579 112.591 51.6813 114.448C50.2981 123.972 49.8239 130.928 49.8239 141.282C49.7844 147.961 49.982 153.296 50.2981 155.509C51.6023 164.677 54.1315 171.751 57.4907 175.545C58.5182 176.731 60.0989 177.877 61.7588 178.707C64.209 179.932 64.6437 180.011 68.3585 179.971C72.9428 179.932 76.1833 179.221 80.3329 177.245C85.589 174.755 89.2643 171.317 92.742 165.507C95.2317 161.437 96.773 156.853 98.4328 148.633C98.5909 147.842 98.9465 148.356 100.33 151.399C104.677 161.002 111 169.301 116.375 172.423C121.315 175.308 127.44 175.15 133.566 171.949C140.402 168.432 144.868 161.002 146.054 151.28C147.2 141.835 144.275 128.28 137.122 109.983C135.739 106.465 134.316 103.027 133.961 102.355C133.605 101.644 133.407 101.012 133.526 100.893C133.605 100.774 135.66 102.395 138.071 104.529C142.299 108.204 142.457 108.283 142.695 107.335C142.892 106.505 141.351 103.304 134.949 91.1317C130.562 82.7931 126.768 75.6401 126.492 75.2449C125.978 74.5731 125.938 74.5731 125.741 75.324Z" fill="white"/>
<path d="M150.243 109.745C147.951 115.713 147.2 120.02 147.99 122.826C148.622 125.197 149.65 126.146 151.428 125.988C153.365 125.83 154.392 124.407 154.629 121.443L154.827 119.191L153.523 120.653C150.954 123.617 149.729 122.115 150.124 116.385C150.243 114.409 150.598 111.603 150.954 110.101C151.27 108.599 151.468 107.295 151.389 107.216C151.349 107.137 150.835 108.283 150.243 109.745Z" fill="white"/>
<path d="M117.046 116.069C115.545 119.902 114.399 124.684 114.399 127.015C114.438 129.663 115.584 132.271 116.928 132.627C119.536 133.259 121.038 131.797 121.393 128.161L121.631 125.869L120.247 127.371C117.758 129.979 116.77 129.11 116.77 124.21C116.77 122.51 117.125 119.428 117.56 117.373C117.955 115.318 118.271 113.618 118.192 113.539C118.153 113.46 117.6 114.606 117.046 116.069Z" fill="white"/>
<path d="M75.7091 122.234C74.2073 125.988 72.8637 130.809 72.6661 133.339C72.3499 136.816 73.3379 139.701 74.9977 140.096C77.6455 140.768 79.2658 139.266 79.5425 135.749L79.7401 133.536L78.3174 134.959C75.8276 137.449 74.8792 136.579 74.8792 131.718C74.8792 130.019 75.2348 126.976 75.6696 124.921C76.1043 122.866 76.4204 121.127 76.3414 121.087C76.2624 121.008 75.9857 121.522 75.7091 122.234Z" fill="white"/>
<path d="M23.5435 126.541C22.0022 130.414 21.0933 134.129 21.0538 137.132C21.0142 140.571 21.6861 142.309 23.4249 143.021C25.8356 144.048 27.8511 141.993 27.8511 138.516V136.658L26.8236 137.883C25.5195 139.424 24.0572 139.543 23.504 138.081C22.9112 136.5 23.0297 133.18 23.8992 128.794C24.3339 126.541 24.6105 124.684 24.5315 124.605C24.4524 124.526 24.0177 125.395 23.5435 126.541Z" fill="white"/>
</g>
<defs>
<clipPath id="clip0_115_94">
<rect width="180" height="180" fill="white"/>
</clipPath>
</defs>
</svg>
